<svg xmlns="http://www.w3.org/2000/svg" width="1180" height="1750" viewBox="0 0 1180 1750" role="img" aria-labelledby="title desc">
  <title id="title">Bio Memory Rust Lab course map</title>
  <desc id="desc">A seventeen lesson path with school activities on the left and university activities on the right.</desc>
  <defs>
    <marker id="arrow" markerWidth="10" markerHeight="10" refX="8" refY="3" orient="auto" markerUnits="strokeWidth">
      <path d="M0,0 L0,6 L9,3 z" fill="#355070" />
    </marker>
    <style>
      .bg { fill: #f8fafc; }
      .title { font: 700 28px system-ui, -apple-system, Segoe UI, sans-serif; fill: #172033; }
      .subtitle { font: 400 15px system-ui, -apple-system, Segoe UI, sans-serif; fill: #516070; }
      .lane { font: 700 16px system-ui, -apple-system, Segoe UI, sans-serif; fill: #253247; }
      .box { stroke-width: 2; rx: 12; ry: 12; }
      .lesson { fill: #ffffff; stroke: #355070; }
      .school { fill: #fff4df; stroke: #d9902f; }
      .university { fill: #eaf7f1; stroke: #2f946d; }
      .text { font: 600 14px system-ui, -apple-system, Segoe UI, sans-serif; fill: #172033; }
      .small { font: 500 12px system-ui, -apple-system, Segoe UI, sans-serif; fill: #3b4658; }
      .arrow { stroke: #355070; stroke-width: 2.5; fill: none; marker-end: url(#arrow); }
      .soft-arrow { stroke: #8391a4; stroke-width: 1.8; fill: none; marker-end: url(#arrow); opacity: 0.8; }
    </style>
  </defs>

  <rect class="bg" width="1180" height="1750" />
  <text class="title" x="48" y="54">Bio Memory Rust Lab Course Map</text>
  <text class="subtitle" x="48" y="80">A path from molecule cards to Rust data structures, graph algorithms, traits, quantum state, CLI tools, DNA memory, visual algorithms, design search, library indexes, fingerprints, screening feedback, lab records, typed measurements, uncertainty, and dose-response curves.</text>

  <text class="lane" x="96" y="124">School studio lane</text>
  <text class="lane" x="470" y="124">Core lesson path</text>
  <text class="lane" x="890" y="124">University lab lane</text>

  <rect class="box lesson" x="430" y="150" width="320" height="62" />
  <text class="text" x="454" y="176">Start</text>
  <text class="small" x="454" y="198">What is structure?</text>

  <rect class="box lesson" x="430" y="240" width="320" height="62" />
  <text class="text" x="454" y="266">Lesson 01</text>
  <text class="small" x="454" y="288">Atoms, Memory, and Types</text>

  <rect class="box lesson" x="430" y="330" width="320" height="62" />
  <text class="text" x="454" y="356">Lesson 02</text>
  <text class="small" x="454" y="378">Molecules as Graphs</text>

  <rect class="box lesson" x="430" y="420" width="320" height="62" />
  <text class="text" x="454" y="446">Lesson 03</text>
  <text class="small" x="454" y="468">Ownership and Borrowing</text>

  <rect class="box lesson" x="430" y="510" width="320" height="62" />
  <text class="text" x="454" y="536">Lesson 04</text>
  <text class="small" x="454" y="558">Quantum State and Simulation</text>

  <rect class="box lesson" x="430" y="600" width="320" height="62" />
  <text class="text" x="454" y="626">Lesson 05</text>
  <text class="small" x="454" y="648">Rust Data Structures for Molecules</text>

  <rect class="box lesson" x="430" y="690" width="320" height="52" />
  <text class="text" x="454" y="713">Lesson 06</text>
  <text class="small" x="454" y="733">Traits and Functions</text>

  <rect class="box lesson" x="430" y="778" width="320" height="52" />
  <text class="text" x="454" y="801">Lesson 07</text>
  <text class="small" x="454" y="821">Molecule Explorer CLI Capstone</text>

  <rect class="box lesson" x="430" y="866" width="320" height="52" />
  <text class="text" x="454" y="889">Lesson 08</text>
  <text class="small" x="454" y="909">DNA and Biological Memory</text>

  <rect class="box lesson" x="430" y="954" width="320" height="52" />
  <text class="text" x="454" y="977">Lesson 09</text>
  <text class="small" x="454" y="997">Visual Data Algorithms</text>

  <rect class="box lesson" x="430" y="1042" width="320" height="52" />
  <text class="text" x="454" y="1065">Lesson 10</text>
  <text class="small" x="454" y="1085">Molecule Design Search</text>

  <rect class="box lesson" x="430" y="1130" width="320" height="52" />
  <text class="text" x="454" y="1153">Lesson 11</text>
  <text class="small" x="454" y="1173">Molecular Library Indexes</text>

  <rect class="box lesson" x="430" y="1218" width="320" height="52" />
  <text class="text" x="454" y="1241">Lesson 12</text>
  <text class="small" x="454" y="1261">Fingerprints and Similarity</text>

  <rect class="box lesson" x="430" y="1306" width="320" height="52" />
  <text class="text" x="454" y="1329">Lesson 13</text>
  <text class="small" x="454" y="1349">Screening Feedback Loops</text>

  <rect class="box lesson" x="430" y="1394" width="320" height="52" />
  <text class="text" x="454" y="1417">Lesson 14</text>
  <text class="small" x="454" y="1437">Serialization and Lab Records</text>

  <rect class="box lesson" x="430" y="1482" width="320" height="52" />
  <text class="text" x="454" y="1505">Lesson 15</text>
  <text class="small" x="454" y="1525">Typed Measurements and Units</text>

  <rect class="box lesson" x="430" y="1570" width="320" height="52" />
  <text class="text" x="454" y="1593">Lesson 16</text>
  <text class="small" x="454" y="1613">Replicates and Uncertainty</text>

  <rect class="box lesson" x="430" y="1658" width="320" height="52" />
  <text class="text" x="454" y="1681">Lesson 17</text>
  <text class="small" x="454" y="1701">Dose-Response Curves</text>

  <path class="arrow" d="M590 212 L590 236" />
  <path class="arrow" d="M590 302 L590 326" />
  <path class="arrow" d="M590 392 L590 416" />
  <path class="arrow" d="M590 482 L590 506" />
  <path class="arrow" d="M590 572 L590 596" />
  <path class="arrow" d="M590 662 L590 686" />
  <path class="arrow" d="M590 742 L590 774" />
  <path class="arrow" d="M590 830 L590 862" />
  <path class="arrow" d="M590 918 L590 950" />
  <path class="arrow" d="M590 1006 L590 1038" />
  <path class="arrow" d="M590 1094 L590 1126" />
  <path class="arrow" d="M590 1182 L590 1214" />
  <path class="arrow" d="M590 1270 L590 1302" />
  <path class="arrow" d="M590 1358 L590 1390" />
  <path class="arrow" d="M590 1446 L590 1478" />
  <path class="arrow" d="M590 1534 L590 1566" />
  <path class="arrow" d="M590 1622 L590 1654" />

  <rect class="box school" x="70" y="242" width="260" height="54" />
  <text class="text" x="92" y="265">Atom cards</text>
  <text class="small" x="92" y="286">turn properties into types</text>

  <rect class="box school" x="70" y="332" width="260" height="54" />
  <text class="text" x="92" y="355">Human bond graph</text>
  <text class="small" x="92" y="376">students become atoms</text>

  <rect class="box school" x="70" y="422" width="260" height="54" />
  <text class="text" x="92" y="445">Owner / reader / editor</text>
  <text class="small" x="92" y="466">act out borrowing rules</text>

  <rect class="box school" x="70" y="512" width="260" height="54" />
  <text class="text" x="92" y="535">Quantum wave cards</text>
  <text class="small" x="92" y="556">measurement as outcome</text>

  <rect class="box school" x="70" y="602" width="260" height="54" />
  <text class="text" x="92" y="625">Container choice game</text>
  <text class="small" x="92" y="646">enum, struct, vector, graph</text>

  <rect class="box school" x="70" y="690" width="260" height="52" />
  <text class="text" x="92" y="713">Capability role cards</text>
  <text class="small" x="92" y="733">Describe, Formula, Graph</text>

  <rect class="box school" x="70" y="778" width="260" height="52" />
  <text class="text" x="92" y="801">Command prediction lab</text>
  <text class="small" x="92" y="821">predict, run, explain output</text>

  <rect class="box school" x="70" y="866" width="260" height="52" />
  <text class="text" x="92" y="889">DNA base cards</text>
  <text class="small" x="92" y="909">bases, codons, gene slices</text>

  <rect class="box school" x="70" y="954" width="260" height="52" />
  <text class="text" x="92" y="977">Data structure stations</text>
  <text class="small" x="92" y="997">arrays, lists, maps, sorting</text>

  <rect class="box school" x="70" y="1042" width="260" height="52" />
  <text class="text" x="92" y="1065">Design stations</text>
  <text class="small" x="92" y="1085">generate, validate, score, rank</text>

  <rect class="box school" x="70" y="1130" width="260" height="52" />
  <text class="text" x="92" y="1153">Library index cards</text>
  <text class="small" x="92" y="1173">shelves, labels, buckets</text>

  <rect class="box school" x="70" y="1218" width="260" height="52" />
  <text class="text" x="92" y="1241">Feature bit cards</text>
  <text class="small" x="92" y="1261">shared bits and similarity</text>

  <rect class="box school" x="70" y="1306" width="260" height="52" />
  <text class="text" x="92" y="1329">Screening matrix cards</text>
  <text class="small" x="92" y="1349">test, defer, label, learn</text>

  <rect class="box school" x="70" y="1394" width="260" height="52" />
  <text class="text" x="92" y="1417">Lab record relay</text>
  <text class="small" x="92" y="1437">serialize, swap, parse</text>

  <rect class="box school" x="70" y="1482" width="260" height="52" />
  <text class="text" x="92" y="1505">Unit conversion relay</text>
  <text class="small" x="92" y="1525">units, validation, sorting</text>

  <rect class="box school" x="70" y="1570" width="260" height="52" />
  <text class="text" x="92" y="1593">Replicate spread cards</text>
  <text class="small" x="92" y="1613">mean, range, variability</text>

  <rect class="box school" x="70" y="1658" width="260" height="52" />
  <text class="text" x="92" y="1681">Dose-response curve cards</text>
  <text class="small" x="92" y="1701">sort, cross, interpolate</text>

  <path class="soft-arrow" d="M430 271 L334 271" />
  <path class="soft-arrow" d="M430 361 L334 361" />
  <path class="soft-arrow" d="M430 451 L334 451" />
  <path class="soft-arrow" d="M430 541 L334 541" />
  <path class="soft-arrow" d="M430 631 L334 631" />
  <path class="soft-arrow" d="M430 716 L334 716" />
  <path class="soft-arrow" d="M430 804 L334 804" />
  <path class="soft-arrow" d="M430 892 L334 892" />
  <path class="soft-arrow" d="M430 980 L334 980" />
  <path class="soft-arrow" d="M430 1068 L334 1068" />
  <path class="soft-arrow" d="M430 1156 L334 1156" />
  <path class="soft-arrow" d="M430 1244 L334 1244" />
  <path class="soft-arrow" d="M430 1332 L334 1332" />
  <path class="soft-arrow" d="M430 1420 L334 1420" />
  <path class="soft-arrow" d="M430 1508 L334 1508" />
  <path class="soft-arrow" d="M430 1596 L334 1596" />
  <path class="soft-arrow" d="M430 1684 L334 1684" />

  <rect class="box university" x="850" y="242" width="270" height="54" />
  <text class="text" x="872" y="265">Type invariants</text>
  <text class="small" x="872" y="286">what should be impossible?</text>

  <rect class="box university" x="850" y="332" width="270" height="54" />
  <text class="text" x="872" y="355">Adjacency lists and BFS</text>
  <text class="small" x="872" y="376">neighbors, paths, fragments</text>

  <rect class="box university" x="850" y="422" width="270" height="54" />
  <text class="text" x="872" y="445">API design and clone cost</text>
  <text class="small" x="872" y="466">borrow, mutate, or copy?</text>

  <rect class="box university" x="850" y="512" width="270" height="54" />
  <text class="text" x="872" y="535">VQE intuition</text>
  <text class="small" x="872" y="556">quantum-classical loop</text>

  <rect class="box university" x="850" y="602" width="270" height="54" />
  <text class="text" x="872" y="625">Representation tradeoffs</text>
  <text class="small" x="872" y="646">storage vs query speed</text>

  <rect class="box university" x="850" y="690" width="270" height="52" />
  <text class="text" x="872" y="713">Trait-based APIs</text>
  <text class="small" x="872" y="733">program against behavior</text>

  <rect class="box university" x="850" y="778" width="270" height="52" />
  <text class="text" x="872" y="801">Command parsing and tests</text>
  <text class="small" x="872" y="821">library boundary and Result</text>

  <rect class="box university" x="850" y="866" width="270" height="52" />
  <text class="text" x="872" y="889">Sequence memory models</text>
  <text class="small" x="872" y="909">String, Vec, slice, mutation log</text>

  <rect class="box university" x="850" y="954" width="270" height="52" />
  <text class="text" x="872" y="977">Sorting, merging, maps</text>
  <text class="small" x="872" y="997">visualization and lookup</text>

  <rect class="box university" x="850" y="1042" width="270" height="52" />
  <text class="text" x="872" y="1065">Constrained search</text>
  <text class="small" x="872" y="1085">scaffolds, filters, ranking</text>

  <rect class="box university" x="850" y="1130" width="270" height="52" />
  <text class="text" x="872" y="1153">Hash indexes and binary search</text>
  <text class="small" x="872" y="1173">records, ranges, merge</text>

  <rect class="box university" x="850" y="1218" width="270" height="52" />
  <text class="text" x="872" y="1241">Bitsets and similarity ranking</text>
  <text class="small" x="872" y="1261">feature bits, shared / union</text>

  <rect class="box university" x="850" y="1306" width="270" height="52" />
  <text class="text" x="872" y="1329">Metrics and feedback loops</text>
  <text class="small" x="872" y="1349">precision, recall, errors</text>

  <rect class="box university" x="850" y="1394" width="270" height="52" />
  <text class="text" x="872" y="1417">Schemas, parsers, provenance</text>
  <text class="small" x="872" y="1437">round trips and parse errors</text>

  <rect class="box university" x="850" y="1482" width="270" height="52" />
  <text class="text" x="872" y="1505">Typed units and assay data</text>
  <text class="small" x="872" y="1525">normalize before comparing</text>

  <rect class="box university" x="850" y="1570" width="270" height="52" />
  <text class="text" x="872" y="1593">Variability and uncertainty</text>
  <text class="small" x="872" y="1613">replicates, spread, confidence</text>

  <rect class="box university" x="850" y="1658" width="270" height="52" />
  <text class="text" x="872" y="1681">Interpolation and curve limits</text>
  <text class="small" x="872" y="1701">target crossing, Option</text>

  <path class="soft-arrow" d="M750 271 L846 271" />
  <path class="soft-arrow" d="M750 361 L846 361" />
  <path class="soft-arrow" d="M750 451 L846 451" />
  <path class="soft-arrow" d="M750 541 L846 541" />
  <path class="soft-arrow" d="M750 631 L846 631" />
  <path class="soft-arrow" d="M750 716 L846 716" />
  <path class="soft-arrow" d="M750 804 L846 804" />
  <path class="soft-arrow" d="M750 892 L846 892" />
  <path class="soft-arrow" d="M750 980 L846 980" />
  <path class="soft-arrow" d="M750 1068 L846 1068" />
  <path class="soft-arrow" d="M750 1156 L846 1156" />
  <path class="soft-arrow" d="M750 1244 L846 1244" />
  <path class="soft-arrow" d="M750 1332 L846 1332" />
  <path class="soft-arrow" d="M750 1420 L846 1420" />
  <path class="soft-arrow" d="M750 1508 L846 1508" />
  <path class="soft-arrow" d="M750 1596 L846 1596" />
  <path class="soft-arrow" d="M750 1684 L846 1684" />
</svg>
